<?xml version="1.0" encoding="UTF-8"?>
<svg id="Layer_1" data-name="Layer 1" xmlns="http://www.w3.org/2000/svg" viewBox="0 0 199.16 59.83">
  <defs>
    <style>
      .cls-1 {
        letter-spacing: .1em;
      }

      .cls-2 {
        letter-spacing: .06em;
      }

      .cls-3 {
        fill: #1f2e46;
      }

      .cls-4 {
        letter-spacing: .06em;
      }

      .cls-5 {
        letter-spacing: .09em;
      }

      .cls-6 {
        stroke: #181e30;
        stroke-miterlimit: 10;
        stroke-width: .73px;
      }

      .cls-6, .cls-7, .cls-8, .cls-9 {
        fill: #181e30;
      }

      .cls-10 {
        letter-spacing: .1em;
      }

      .cls-11 {
        letter-spacing: .07em;
      }

      .cls-7 {
        font-family: ContaxSans55, 'Contax Sans 55';
        font-size: 27.2px;
      }

      .cls-12 {
        letter-spacing: .1em;
      }

      .cls-13 {
        fill: #4d6583;
      }

      .cls-14 {
        letter-spacing: .07em;
      }

      .cls-15 {
        letter-spacing: .09em;
      }

      .cls-9 {
        font-family: BrandonGrotesque-Medium, 'Brandon Grotesque';
        font-size: 13.35px;
        font-weight: 500;
      }

      .cls-16 {
        fill: #4e6b94;
      }
    </style>
  </defs>
  <g>
    <line class="cls-6" x1="54.84" y1="28.17" x2="199.07" y2="28.17"/>
    <g>
      <text class="cls-9" transform="translate(59.45 40.75) scale(1.06 1)"><tspan class="cls-14" x="0" y="0">P</tspan><tspan class="cls-12" x="8.86" y="0">L</tspan><tspan class="cls-14" x="16.87" y="0">ASTIC SURGERY</tspan><tspan class="cls-10" x="127.45" y="0"> </tspan></text>
      <text class="cls-9" transform="translate(59.02 54.76) scale(1.06 1)"><tspan class="cls-1" x="0" y="0">+ DERM</tspan><tspan class="cls-2" x="56.98" y="0">A</tspan><tspan class="cls-15" x="66.65" y="0">T</tspan><tspan class="cls-10" x="74.4" y="0">O</tspan><tspan class="cls-5" x="86.55" y="0">L</tspan><tspan class="cls-10" x="94.46" y="0">OGY</tspan></text>
    </g>
    <text class="cls-7" transform="translate(58.92 22.89)"><tspan class="cls-11" x="0" y="0">A</tspan><tspan class="cls-4" x="19.75" y="0">llure MD</tspan></text>
  </g>
  <g>
    <path class="cls-13" d="m10.85,16.51s0,0,0,0h0s0,0,0,0c-.24-.29-.39-.18-.63.1-2.58,3.01-2.61,8.66-.05,11.64.23.26.37.58.78.09,2.57-3.08,2.47-8.81-.09-11.81h0Z"/>
    <path class="cls-8" d="m40.89,16.24h0s0,0,0,0h0s0,0,0,0c-.24-.29-.39-.17-.63.1-2.58,3.01-2.61,8.66-.05,11.64.23.26.37.58.78.09,2.57-3.08,2.47-8.81-.09-11.81Z"/>
    <path class="cls-8" d="m39.11,29.05c-2.97-2.57-8.62-2.54-11.64.04-.28.24-.4.39-.1.63,0,0,0,0,0,0,0,0,0,0,0,0,0,0,0,0,.01,0,0,0,.01.01.01.01,3,2.55,8.71,2.65,11.79.08.49-.41.17-.55-.09-.78Z"/>
    <path class="cls-13" d="m43,17.19c1.56,3.01,1.65,6.16.31,9.53.36-.13.6-.24.85-.32,2.45-.79,4.72-.81,6.84-.14v-8.36c-2.8.8-5.45.57-8-.71Z"/>
    <path class="cls-8" d="m28.41,17.24c1.61,3.21,1.47,6.75-.31,9.93,3.09-1.73,6.77-1.81,9.92-.3-1.51-3.15-1.42-6.84.32-9.93-3.18,1.77-6.72,1.91-9.92.3Z"/>
    <path class="cls-8" d="m9.17,30.11c.49-.41.17-.55-.09-.78-2.26-1.95-6.06-2.4-9.08-1.37v3.5c3.03,1.01,6.85.59,9.17-1.35Z"/>
    <path class="cls-13" d="m11.88,29.36c-.52.47.02.82.23.98,1.85,1.15,3.79,1.76,6.01,1.69,2-.06,3.82-.67,5.44-1.88.42-.32.47-.57.05-.83-2.89-2.59-8.87-2.54-11.72.05Z"/>
    <path class="cls-8" d="m10.14,42.76c.26.42.52.37.83-.05,1.22-1.62,1.83-3.44,1.89-5.43.07-2.22-.54-4.16-1.69-6.01-.15-.21-.51-.75-.98-.23-2.59,2.86-2.64,8.83-.06,11.72Z"/>
    <path class="cls-3" d="m7.99,27.14c-1.51-3.15-1.42-6.83.31-9.92-2.65,1.48-5.55,1.81-8.3.94v8.45c2.62-.85,5.48-.68,7.99.53Z"/>
    <path class="cls-8" d="m23.25,42.18c-1.69-3.41-1.49-7.49.69-10.76-.13.09-.25.19-.39.28-3.31,2.05-7.06,2.27-10.43.57,1.69,3.37,1.47,7.13-.58,10.43-.2.31-.41.61-.64.9,3.29-2.69,7.67-3.13,11.35-1.42Z"/>
    <path class="cls-8" d="m10.99,46.62s0,0,0,0h0s0,0,0,0c-.24-.29-.39-.18-.63.1-1.87,2.19-2.4,5.77-1.56,8.7h3.8c.82-3,.26-6.61-1.6-8.79h0Z"/>
    <path class="cls-8" d="m11.01,13.19c1.22-1.62,1.83-3.44,1.89-5.43.04-1.18-.12-2.29-.45-3.34h-3.75c-.87,2.98-.4,6.72,1.48,8.82.26.42.52.37.83-.05Z"/>
    <path class="cls-8" d="m25.51,46.05c-1.97,2.24-2.39,6.31-1.27,9.36h3.43c.37-1,.57-2.05.59-3.16.04-2.22-.6-4.16-1.77-5.99-.16-.21-.52-.74-.98-.21Z"/>
    <path class="cls-13" d="m12.79,12.76c3.2-2.07,7.15-2.26,10.5-.66-1.16-2.42-1.37-5.15-.62-7.69h-8.86c.86,2.77.5,5.69-1.01,8.35Z"/>
    <path class="cls-8" d="m37.87,32.16c-3.71,1.47-7.15,1.23-10.43-.81-.01,0-.02-.02-.03-.03.05.08.12.15.17.23,2.09,3.25,2.38,6.69.95,10.42.35-.14.6-.24.85-.33,3.38-1.15,6.45-.82,9.24.82-1.79-2.83-2.2-5.96-1.07-9.44.08-.25.18-.5.32-.85Z"/>
    <path class="cls-3" d="m41.01,42.44c1.22-1.62,1.83-3.44,1.89-5.43.07-2.22-.54-4.16-1.69-6.01-.15-.21-.51-.75-.98-.23-2.59,2.86-2.64,8.83-.06,11.72.26.42.52.37.83-.05Z"/>
    <path class="cls-8" d="m12.47,16.57c2.05,3.28,2.28,6.73.81,10.43.36-.13.6-.24.85-.32,3.73-1.21,7.06-.67,10.04,1.46-2.04-2.95-2.54-6.23-1.35-9.89.08-.25.18-.5.32-.85-3.71,1.47-7.15,1.23-10.43-.81-.17-.11-.33-.24-.5-.37.09.12.18.23.26.35Z"/>
    <path class="cls-8" d="m26.25,13.29c1.87-2.24,2.32-5.89,1.44-8.87h-3.68c-.9,2.97-.42,6.6,1.46,8.78.23.26.37.58.78.09Z"/>
    <path class="cls-16" d="m41.01,13.35c1.22-1.62,1.83-3.44,1.89-5.43.04-1.24-.14-2.4-.5-3.5h-3.65c-.94,3.01-.48,6.84,1.44,8.98.26.42.52.37.83-.05Z"/>
    <path class="cls-8" d="m40.2,45.84s0,0,0,0c0,0,0,0,0,.01,0,0,0,0,0,.01,0,0-.01.01-.01.01-1.99,2.38-2.43,6.43-1.26,9.54h3.3c1.16-3.06.69-7.11-1.38-9.48-.24-.28-.39-.39-.63-.1Z"/>
    <path class="cls-3" d="m8.73,45.01h0s0,0,0,0h0s0,0,0,0c.29-.24.17-.39-.11-.63-2.19-1.84-5.72-2.33-8.64-1.51v3.84c3,.77,6.58.18,8.73-1.69Z"/>
    <path class="cls-16" d="m8.3,12.68c-1.42-2.51-1.74-5.26-.92-8.27H1.61c-.89,0-1.61.72-1.61,1.61v5.74c3.02-.83,5.78-.51,8.3.91Z"/>
    <path class="cls-8" d="m29.43,11.64c3.11-1.01,5.95-.79,8.54.55-1.15-2.38-1.35-4.97-.55-7.78h-8.35c.72,2.41.55,4.91-.5,7.55.36-.13.6-.24.85-.32Z"/>
    <path class="cls-3" d="m43.76,4.41c.83,2.55.64,5.23-.54,7.73,2.46-1.18,5.23-1.38,7.79-.6v-5.52c0-.89-.72-1.61-1.61-1.61h-5.63Z"/>
    <path class="cls-3" d="m9.09,46.33c-.13.1-.26.21-.4.3-2.75,1.75-5.63,2.2-8.69,1.44v5.74c0,.89.72,1.61,1.61,1.61h5.84c-.84-3.06-.31-6.37,1.63-9.09Z"/>
    <path class="cls-16" d="m43.15,32c1.62,3.24,1.47,6.82-.36,10.02,2.53-1.49,5.48-1.82,8.21-1.08v-8.31c-2.6.84-5.33.64-7.85-.63Z"/>
    <path class="cls-16" d="m23.17,47.48c-3.69,1.52-7.14,1.33-10.44-.67-.03-.02-.06-.05-.1-.07,1.7,2.75,2.11,5.63,1.32,8.67h8.93c-.78-2.18-.81-4.53-.02-7.08.08-.25.18-.5.31-.86Z"/>
    <path class="cls-16" d="m42.57,46.23c1.73,2.81,2.03,6.16.97,9.18h3.41c.7-.06,1.41-.08,2.12,0h.32c.89,0,1.61-.72,1.61-1.61v-6.33c-2.96.75-5.75.36-8.43-1.24Z"/>
    <path class="cls-8" d="m42.36,43.84c-.28.24-.4.39-.11.63,0,0,0,0,0,0,0,0,0,0,.01,0,0,0,0,0,.01,0,0,0,.01.01.01.01,2.16,1.84,5.73,2.39,8.71,1.61v-3.84c-2.92-.81-6.47-.29-8.64,1.57Z"/>
    <path class="cls-13" d="m28.44,47.24c1.36,2.61,1.54,5.46.61,8.17h8.46c-.97-2.93-.84-5.72.46-8.39-3.06,1.61-6.44,1.72-9.53.22Z"/>
    <path class="cls-8" d="m8.81,15.39c.42-.32.47-.57.05-.83-2.11-1.89-5.88-2.37-8.86-1.48v3.73c1.06.34,2.18.5,3.38.47,2-.06,3.82-.67,5.44-1.88Z"/>
    <path class="cls-3" d="m25.5,16c-2.59,2.86-2.64,8.83-.06,11.72.26.42.52.37.83-.05,1.22-1.62,1.83-3.44,1.89-5.43.07-2.22-.54-4.16-1.69-6.01-.15-.21-.51-.75-.98-.23Z"/>
    <path class="cls-3" d="m27.41,45.32c1.86,1.12,3.81,1.7,6.04,1.61,2-.09,3.81-.72,5.41-1.96.42-.32.46-.58.04-.83-2.93-2.55-8.9-2.41-11.72.21-.52.48.03.82.24.98Z"/>
    <path class="cls-8" d="m41.99,14.36c-.28.24-.4.39-.1.63,0,0,0,0,0,0,0,0,0,0,.01,0,0,0,0,0,.01,0,0,0,.01.01.01.01,2.25,1.91,6.03,2.45,9.08,1.51v-3.64c-2.99-.96-6.74-.47-9.01,1.47Z"/>
    <path class="cls-16" d="m24.38,14.29c-2.97-2.57-8.62-2.54-11.64.04-.28.24-.4.39-.11.63,0,0,0,0,0,0,0,0,0,0,0,0,0,0,0,0,.01,0,0,0,.01.01.01.01,3,2.55,8.71,2.65,11.79.08.49-.41.17-.55-.09-.78Z"/>
    <path class="cls-13" d="m38.9,14.27c-2.89-2.59-8.87-2.54-11.72.05-.52.47.02.82.23.98,1.85,1.15,3.79,1.76,6.01,1.69,2-.06,3.82-.67,5.44-1.88.42-.32.47-.57.05-.83Z"/>
    <path class="cls-8" d="m12.64,45.18s0,0,0,0c0,0,0,0,.01,0,0,0,0,0,.01,0,0,0,.01.01.01.01,3.04,2.51,8.75,2.52,11.79-.08.48-.42.17-.56-.1-.78-3-2.52-8.66-2.42-11.63.2-.28.24-.39.4-.1.63Z"/>
    <path class="cls-16" d="m26.22,43.32c2.53-3.12,2.35-8.85-.26-11.81h0s0,0,0,0h0s0,0,0,0c-.24-.29-.39-.17-.63.11-2.54,3.05-2.49,8.7.12,11.63.23.26.38.57.78.08Z"/>
    <path class="cls-8" d="m41.91,29.09c-.52.47.02.82.23.98,1.85,1.15,3.79,1.76,6.01,1.69.99-.03,1.94-.2,2.85-.5v-3.66c-3.04-.96-6.94-.45-9.09,1.49Z"/>
    <path class="cls-16" d="m8.69,42.89c-1.88-2.87-2.32-6.06-1.17-9.6.08-.25.18-.5.32-.85-2.74,1.09-5.35,1.24-7.84.41v8.69c2.91-.8,6.05-.37,8.69,1.36Z"/>
  </g>
</svg>